<svg width="28" height="28" viewBox="0 0 28 28" fill="none" xmlns="http://www.w3.org/2000/svg">
<path fill-rule="evenodd" clip-rule="evenodd" d="M24.5 14C24.5 19.799 19.799 24.5 14 24.5C8.20101 24.5 3.5 19.799 3.5 14C3.5 8.20101 8.20101 3.5 14 3.5C19.799 3.5 24.5 8.20101 24.5 14ZM15.1667 9.33333C15.1667 9.97767 14.6443 10.5 14 10.5C13.3557 10.5 12.8333 9.97767 12.8333 9.33333C12.8333 8.689 13.3557 8.16667 14 8.16667C14.6443 8.16667 15.1667 8.689 15.1667 9.33333ZM15 19.8333V12.8333H13V19.8333H15Z" fill="#131313"/>
</svg>
