<svg width="44" height="44" viewBox="0 0 44 44" fill="none" xmlns="http://www.w3.org/2000/svg">
<path fill-rule="evenodd" clip-rule="evenodd" d="M22.0002 42.1666C10.8624 42.1666 1.8335 33.1377 1.8335 21.9999C1.8335 10.8622 10.8624 1.83325 22.0002 1.83325C33.1379 1.83325 42.1668 10.8622 42.1668 21.9999C42.1668 33.1377 33.1379 42.1666 22.0002 42.1666ZM22.0002 38.4999C31.1129 38.4999 38.5002 31.1126 38.5002 21.9999C38.5002 12.8872 31.1129 5.49992 22.0002 5.49992C12.8875 5.49992 5.50016 12.8872 5.50016 21.9999C5.50016 31.1126 12.8875 38.4999 22.0002 38.4999ZM31.1668 20.1666H19.0929L23.2965 15.9629L20.7038 13.3702L12.0741 21.9999L20.7038 30.6296L23.2965 28.0369L19.0929 23.8333H31.1668V20.1666Z" fill="#92D8FF"/>
</svg>
