<svg width="52" height="52" viewBox="0 0 52 52" fill="none" xmlns="http://www.w3.org/2000/svg">
<path fill-rule="evenodd" clip-rule="evenodd" d="M26 49.8334C12.8372 49.8334 2.16669 39.1629 2.16669 26.0001C2.16669 12.8373 12.8372 2.16675 26 2.16675C39.1628 2.16675 49.8333 12.8373 49.8333 26.0001C49.8333 39.1629 39.1628 49.8334 26 49.8334ZM26 45.5001C36.7696 45.5001 45.5 36.7696 45.5 26.0001C45.5 15.2305 36.7696 6.50008 26 6.50008C15.2305 6.50008 6.50002 15.2305 6.50002 26.0001C6.50002 36.7696 15.2305 45.5001 26 45.5001ZM15.8013 28.8013L18.8654 31.8655L26 24.7309L33.1346 31.8655L36.1987 28.8013L26 18.6026L15.8013 28.8013Z" fill="#8E8E8E"/>
</svg>
