<svg width="30" height="30" viewBox="0 0 30 30" fill="none" xmlns="http://www.w3.org/2000/svg">
<path fill-rule="evenodd" clip-rule="evenodd" d="M12.5215 25.0046C12.528 25.1581 12.5115 25.3079 12.4791 25.4596C12.4223 25.7261 12.3126 26.0081 12.1573 26.2687C11.7157 27.0094 10.9657 27.5037 10 27.5037C7.72512 27.5037 6.83229 26.3876 5.7144 23.5929C4.95729 21.7001 4.60012 21.2537 3.75 21.2537L3.75 18.7537C6.02488 18.7537 6.91771 19.8697 8.0356 22.6644C8.79271 24.5572 9.14988 25.0037 10 25.0037C10 24.641 9.99503 24.3197 9.98458 23.8846C9.96008 22.8648 9.95726 22.6567 10.0017 22.384C10.0195 21.7889 10.1732 21.3667 10.4812 20.9476C7.69149 20.3403 5.8099 19.0861 4.72997 17.0518L4.32542 16.1004C3.93131 14.9678 3.75 13.6844 3.75 12.2023C3.75 10.4953 4.27043 8.96912 5.24252 7.69334C4.93928 6.48066 4.98081 4.99903 5.65039 3.32575L5.86917 2.779L6.43009 2.59957C6.50518 2.57555 6.59648 2.55386 6.70374 2.53702C7.79595 2.3656 9.35013 2.7746 11.3819 4.07605C12.5797 3.7984 13.8411 3.65822 15.111 3.65822C16.2458 3.65822 17.3743 3.77262 18.452 3.99817C20.4288 2.76026 21.9403 2.372 23.0031 2.53724C23.1091 2.55373 23.1995 2.57501 23.274 2.59863L23.8384 2.77761L24.0574 3.3277C24.6432 4.79862 24.7437 6.1542 24.5306 7.34036C25.6481 8.68125 26.25 10.3297 26.25 12.2023C26.25 13.781 26.1369 14.968 25.8118 16.1229L25.4686 17.0646C24.5704 19.0967 22.5893 20.365 19.5344 20.9691C19.8519 21.4087 20 21.855 20 22.5037V23.7537C20 24.3594 20 24.3781 19.9986 25.0037C20.0015 25.0486 20.0052 25.0706 20.0093 25.0843C20.0083 25.0846 20 27.5037 20 27.5037C18.9353 27.5037 18.1436 26.9844 17.7542 26.1653C17.5523 25.7407 17.492 25.3351 17.5 24.9859V22.5037C17.5 22.3989 17.4964 22.3928 17.2411 22.1375C16.5589 21.4553 16.25 20.9405 16.25 20.0037V18.8729L17.3751 18.7599C20.7242 18.4236 22.5457 17.4935 23.1496 16.1348L23.4318 15.3633C23.6564 14.5565 23.75 13.5741 23.75 12.2023C23.75 10.7447 23.2411 9.54058 22.2787 8.57857L21.7498 8.0498L21.9657 7.3337C22.1575 6.69752 22.203 5.94474 22.0001 5.08612C21.9664 5.09466 21.9314 5.10398 21.895 5.1141C21.2257 5.30044 20.39 5.70027 19.3831 6.37336L18.9238 6.68036L18.3876 6.54741C17.3505 6.29024 16.2361 6.15822 15.111 6.15822C13.8598 6.15822 12.6231 6.3174 11.4806 6.62887L10.923 6.78088L10.446 6.45457C9.40453 5.74209 8.53931 5.31839 7.84553 5.12046C7.79598 5.10632 7.7488 5.09368 7.70396 5.0824C7.4619 6.07613 7.55764 6.89257 7.80279 7.5052L8.09673 8.23976L7.55861 8.81977C6.70112 9.744 6.25 10.8687 6.25 12.2023C6.25 13.4232 6.39293 14.4349 6.65485 15.197L6.98196 15.9713C7.79967 17.5057 9.53651 18.4288 12.6332 18.7608L13.75 18.8805V20.0037C13.75 20.9405 13.4411 21.4553 12.7589 22.1375C12.5036 22.3928 12.5 22.3989 12.5 22.5037L12.4785 22.7347C12.4642 22.8105 12.4642 23.0062 12.4839 23.8245C12.4929 24.2009 12.4981 24.4988 12.4995 24.81C12.5145 24.8745 12.5167 24.9161 12.5215 25.0046Z" fill="#131313"/>
</svg>
