<svg width="35" height="35" viewBox="0 0 35 35" fill="none" xmlns="http://www.w3.org/2000/svg">
<path fill-rule="evenodd" clip-rule="evenodd" d="M30.4009 17.5C30.4009 17.1534 30.2088 16.9096 29.8247 16.4221C27.9816 14.083 23.1591 8.75 17.5 8.75C11.841 8.75 7.01845 14.083 5.17539 16.4221C4.79125 16.9096 4.59918 17.1534 4.59918 17.5C4.59918 17.8466 4.79125 18.0904 5.17539 18.5779C7.01845 20.917 11.841 26.25 17.5 26.25C23.1591 26.25 27.9816 20.917 29.8247 18.5779C30.2088 18.0904 30.4009 17.8466 30.4009 17.5ZM17.5 21.875C19.9163 21.875 21.875 19.9162 21.875 17.5C21.875 15.0838 19.9163 13.125 17.5 13.125C15.0838 13.125 13.125 15.0838 13.125 17.5C13.125 19.9162 15.0838 21.875 17.5 21.875Z" fill="black"/>
</svg>
