<svg width="32" height="32" viewBox="0 0 32 32" fill="none" xmlns="http://www.w3.org/2000/svg">
<path fill-rule="evenodd" clip-rule="evenodd" d="M4.00106 11.8113C4 12.0812 4 12.366 4 12.6667V19.3334C4 22.1618 4 23.5761 4.87868 24.4547C5.75736 25.3334 7.17157 25.3334 10 25.3334H22C24.8284 25.3334 26.2426 25.3334 27.1213 24.4547C28 23.5761 28 22.1618 28 19.3334V12.6667C28 12.366 28 12.0812 27.9989 11.8113L16.9713 17.9378C16.3672 18.2734 15.6328 18.2734 15.0287 17.9378L4.00106 11.8113ZM4.07586 9.66939C4.21552 9.67992 4.35518 9.72011 4.48564 9.79259L16 16.1895L27.5144 9.79259C27.6448 9.72011 27.7845 9.67992 27.9241 9.66939C27.8284 8.69285 27.6116 8.03576 27.1213 7.54543C26.2426 6.66675 24.8284 6.66675 22 6.66675H10C7.17157 6.66675 5.75736 6.66675 4.87868 7.54543C4.38835 8.03576 4.17164 8.69285 4.07586 9.66939Z" fill="#FAFAFA"/>
</svg>
