<svg width="18" height="21" viewBox="0 0 18 21" fill="none" xmlns="http://www.w3.org/2000/svg">
<path d="M9.64523 10.82C7.78175 7.56729 8.12617 4.66253 8.40032 2.79933L8.42886 2.60698C8.48625 2.22185 8.54148 1.85111 8.56019 1.5493C8.57129 1.37023 8.57297 1.17349 8.54246 0.98441C8.51247 0.798527 8.44041 0.550025 8.24686 0.339882C7.80714 -0.137537 7.18962 -0.00499894 6.8561 0.102357C6.45975 0.229934 5.96443 0.483329 5.36343 0.833006C0.234565 3.81714 -1.52271 10.4263 1.43844 15.5949C4.39959 20.7636 10.9578 22.5345 16.0867 19.5504C16.6877 19.2007 17.1531 18.8951 17.4609 18.613C17.72 18.3756 18.1426 17.9029 17.9522 17.2805C17.8684 17.0065 17.6909 16.8193 17.5461 16.7002C17.3989 16.579 17.229 16.4821 17.0695 16.4023C16.8008 16.2677 16.4547 16.1306 16.095 15.9881L15.9154 15.9168C14.1772 15.2245 11.5087 14.0727 9.64523 10.82Z" fill="#131313"/>
</svg>
