<svg width="24" height="21" viewBox="0 0 24 21" fill="none" xmlns="http://www.w3.org/2000/svg">
<path fill-rule="evenodd" clip-rule="evenodd" d="M24 18.6667C24 19.9553 22.9255 21 21.6 21H2.4C1.07452 21 0 19.9553 0 18.6667V10.2605L0.097026 10.0404L3.72284 1.81914C4.26363 0.748318 4.94572 0.085174 6 0H18L18.157 0.0100263C19.0604 0.125926 19.7221 0.769246 20.303 1.87376L24 10.2605V18.6667ZM2.4 11.6667V18.6667H21.6V11.6667H16.8C16.8 12.9553 15.7255 14 14.4 14H9.6C8.27452 14 7.2 12.9553 7.2 11.6667H2.4ZM3.01985 9.33333H9.6V11.6667H14.4V9.33333H20.9808L18.1328 2.86684C17.9984 2.61268 17.8743 2.4343 17.7741 2.33325L6.21111 2.32894C6.11844 2.42604 6.00399 2.59618 5.90297 2.79291L3.01985 9.33333Z" fill="#131313"/>
</svg>
