<svg width="29" height="29" viewBox="0 0 29 29" fill="none" xmlns="http://www.w3.org/2000/svg">
<path fill-rule="evenodd" clip-rule="evenodd" d="M3.91789 7.54289C3.625 7.83579 3.625 8.30719 3.625 9.25V19.75C3.625 20.6928 3.625 21.1642 3.91789 21.4571C4.21079 21.75 4.68219 21.75 5.625 21.75H18.4009C19.4489 21.75 19.9728 21.75 20.415 21.5133C20.8572 21.2767 21.1478 20.8407 21.7291 19.9688L23.8958 16.7188C24.6128 15.6433 24.9713 15.1056 24.9713 14.5C24.9713 13.8944 24.6128 13.3567 23.8958 12.2812L21.7291 9.0312C21.1478 8.15927 20.8572 7.7233 20.415 7.48665C19.9728 7.25 19.4489 7.25 18.4009 7.25H5.625C4.68219 7.25 4.21079 7.25 3.91789 7.54289ZM18.125 16.9167C19.4597 16.9167 20.5417 15.8347 20.5417 14.5C20.5417 13.1653 19.4597 12.0833 18.125 12.0833C16.7903 12.0833 15.7083 13.1653 15.7083 14.5C15.7083 15.8347 16.7903 16.9167 18.125 16.9167Z" fill="#FAFAFA"/>
</svg>
